<svg id="Layer_1" data-name="Layer 1" xmlns="http://www.w3.org/2000/svg" viewBox="0 0 120 120"><defs><style>.cls-1{fill:#fff;}.cls-2{fill:#0052ff;}.cls-3{fill:#bfc4cf;}.cls-4{fill:#0a0b0d;}</style></defs><rect class="cls-1" width="120" height="120" rx="60"/><circle class="cls-2" cx="60" cy="60" r="26"/><path class="cls-1" d="M60,36A24,24,0,1,1,36,60,24,24,0,0,1,60,36m0-4A28,28,0,1,0,88,60,28,28,0,0,0,60,32Z"/><path class="cls-3" d="M61.53,20A1.49,1.49,0,0,0,60,21.53V32a28,28,0,0,1,0,56V98.47a1.49,1.49,0,0,0,1.53,1.5,40,40,0,0,0,0-79.94Z"/><path class="cls-4" d="M60,36V84a24,24,0,0,0,0-48Z"/><path class="cls-1" d="M60,50l2.62,7.38L70,60l-7.38,2.62L60,70l-2.62-7.38L50,60l7.38-2.62Z"/></svg>